<svg xmlns="http://www.w3.org/2000/svg" viewBox="0 0 400 400">
  <defs>
    <linearGradient id="bg" x1="0%" y1="0%" x2="100%" y2="100%">
      <stop offset="0%" style="stop-color:#1a1a2e"/>
      <stop offset="100%" style="stop-color:#16213e"/>
    </linearGradient>
    <linearGradient id="jar" x1="0%" y1="0%" x2="100%" y2="100%">
      <stop offset="0%" style="stop-color:#e0c3fc"/>
      <stop offset="100%" style="stop-color:#b39ddb"/>
    </linearGradient>
    <linearGradient id="cream" x1="0%" y1="0%" x2="0%" y2="100%">
      <stop offset="0%" style="stop-color:#f5f0ff"/>
      <stop offset="100%" style="stop-color:#e8daff"/>
    </linearGradient>
    <linearGradient id="lid" x1="0%" y1="0%" x2="0%" y2="100%">
      <stop offset="0%" style="stop-color:#d1c4e9"/>
      <stop offset="100%" style="stop-color:#9575cd"/>
    </linearGradient>
    <filter id="shadow" x="-20%" y="-20%" width="140%" height="140%">
      <feDropShadow dx="0" dy="6" stdDeviation="10" flood-color="#000" flood-opacity="0.5"/>
    </filter>
  </defs>
  <rect width="400" height="400" fill="url(#bg)"/>
  <g filter="url(#shadow)" transform="translate(130,70)">
    <ellipse cx="70" cy="20" rx="70" ry="15" fill="url(#lid)"/>
    <rect x="0" y="20" width="140" height="80" rx="8" fill="url(#lid)"/>
    <ellipse cx="70" cy="100" rx="70" ry="15" fill="#b39ddb"/>
    <path d="M0 100 L0 230 Q0 260 70 260 Q140 260 140 230 L140 100" fill="url(#jar)"/>
    <ellipse cx="70" cy="230" rx="70" ry="15" fill="#ce93d8" opacity="0.5"/>
    <rect x="20" y="130" width="100" height="40" rx="6" fill="rgba(255,255,255,0.15)"/>
    <text x="70" y="155" text-anchor="middle" font-family="serif" font-size="12" fill="rgba(255,255,255,0.8)" font-weight="bold">BALM</text>
    <rect x="5" y="25" width="30" height="190" rx="4" fill="rgba(255,255,255,0.1)"/>
  </g>
  <text x="200" y="375" text-anchor="middle" font-family="sans-serif" font-size="10" fill="rgba(224,195,252,0.3)" letter-spacing="3">VILA CBD</text>
</svg>