<svg xmlns="http://www.w3.org/2000/svg" viewBox="0 0 400 400">
  <defs>
    <linearGradient id="bg" x1="0%" y1="0%" x2="100%" y2="100%">
      <stop offset="0%" style="stop-color:#2d1b4e"/>
      <stop offset="100%" style="stop-color:#1a0e30"/>
    </linearGradient>
    <radialGradient id="bud1" cx="50%" cy="50%" r="50%">
      <stop offset="0%" style="stop-color:#9d4edd"/>
      <stop offset="100%" style="stop-color:#5a189a"/>
    </radialGradient>
    <radialGradient id="bud2" cx="50%" cy="50%" r="50%">
      <stop offset="0%" style="stop-color:#c77dff"/>
      <stop offset="100%" style="stop-color:#7b2cbf"/>
    </radialGradient>
    <radialGradient id="trichome" cx="50%" cy="50%" r="50%">
      <stop offset="0%" style="stop-color:#fff;stop-opacity:0.7"/>
      <stop offset="100%" style="stop-color:#fff;stop-opacity:0"/>
    </radialGradient>
    <filter id="shadow" x="-20%" y="-20%" width="140%" height="140%">
      <feDropShadow dx="0" dy="4" stdDeviation="8" flood-color="#000" flood-opacity="0.5"/>
    </filter>
  </defs>
  <rect width="400" height="400" fill="url(#bg)"/>
  <g filter="url(#shadow)">
    <ellipse cx="150" cy="180" rx="70" ry="60" fill="url(#bud1)" transform="rotate(-20,150,180)"/>
    <ellipse cx="240" cy="200" rx="75" ry="65" fill="url(#bud2)" transform="rotate(10,240,200)"/>
    <ellipse cx="195" cy="240" rx="60" ry="50" fill="#7b2cbf" opacity="0.6" transform="rotate(5,195,240)"/>
    <path d="M130 160 Q150 140 165 165 Q145 180 130 160Z" fill="#a855f7" opacity="0.4"/>
    <path d="M230 170 Q250 150 260 175 Q245 190 230 170Z" fill="#c084fc" opacity="0.3"/>
    <path d="M170 240 Q190 225 200 245 Q185 260 170 240Z" fill="#9333ea" opacity="0.35"/>
  </g>
  <g opacity="0.5">
    <circle cx="135" cy="155" r="1.5" fill="url(#trichome)"/>
    <circle cx="160" cy="150" r="2" fill="url(#trichome)"/>
    <circle cx="230" cy="165" r="1.5" fill="url(#trichome)"/>
    <circle cx="260" cy="185" r="2" fill="url(#trichome)"/>
    <circle cx="200" cy="220" r="1.5" fill="url(#trichome)"/>
    <circle cx="175" cy="255" r="1.5" fill="url(#trichome)"/>
    <circle cx="245" cy="230" r="1" fill="url(#trichome)"/>
    <circle cx="120" cy="195" r="1" fill="url(#trichome)"/>
    <circle cx="270" cy="210" r="1" fill="url(#trichome)"/>
  </g>
  <text x="200" y="370" text-anchor="middle" font-family="sans-serif" font-size="10" fill="rgba(199,125,255,0.3)" letter-spacing="3">VILA CÃNHAMO</text>
</svg>