<svg xmlns="http://www.w3.org/2000/svg" viewBox="0 0 400 400">
  <defs>
    <linearGradient id="bg" x1="0%" y1="0%" x2="100%" y2="100%">
      <stop offset="0%" style="stop-color:#10002b"/>
      <stop offset="100%" style="stop-color:#240046"/>
    </linearGradient>
    <radialGradient id="bud" cx="50%" cy="50%" r="50%">
      <stop offset="0%" style="stop-color:#7b2cbf"/>
      <stop offset="40%" style="stop-color:#5a189a"/>
      <stop offset="100%" style="stop-color:#3c096c"/>
    </radialGradient>
    <radialGradient id="trichome" cx="50%" cy="50%" r="50%">
      <stop offset="0%" style="stop-color:#fff;stop-opacity:0.8"/>
      <stop offset="100%" style="stop-color:#fff;stop-opacity:0"/>
    </radialGradient>
    <filter id="shadow" x="-20%" y="-20%" width="140%" height="140%">
      <feDropShadow dx="0" dy="4" stdDeviation="8" flood-color="#000" flood-opacity="0.6"/>
    </filter>
    <filter id="glow">
      <feGaussianBlur stdDeviation="3"/>
    </filter>
  </defs>
  <rect width="400" height="400" fill="url(#bg)"/>
  <g filter="url(#shadow)">
    <ellipse cx="200" cy="200" rx="100" ry="85" fill="url(#bud)" transform="rotate(-15,200,200)"/>
    <ellipse cx="175" cy="175" rx="60" ry="50" fill="#6b21a8" opacity="0.6" transform="rotate(10,175,175)"/>
    <ellipse cx="230" cy="220" rx="50" ry="40" fill="#7c3aed" opacity="0.5" transform="rotate(-20,230,220)"/>
    <path d="M160 170 Q180 150 200 170 Q180 190 160 170Z" fill="#9333ea" opacity="0.4"/>
    <path d="M220 190 Q240 170 250 190 Q240 210 220 190Z" fill="#a855f7" opacity="0.3"/>
    <path d="M180 230 Q200 210 210 230 Q200 250 180 230Z" fill="#7e22ce" opacity="0.4"/>
  </g>
  <g opacity="0.7">
    <circle cx="170" cy="160" r="2" fill="url(#trichome)"/>
    <circle cx="195" cy="150" r="1.5" fill="url(#trichome)"/>
    <circle cx="225" cy="175" r="2" fill="url(#trichome)"/>
    <circle cx="210" cy="200" r="1.5" fill="url(#trichome)"/>
    <circle cx="185" cy="220" r="2" fill="url(#trichome)"/>
    <circle cx="240" cy="210" r="1.5" fill="url(#trichome)"/>
    <circle cx="155" cy="195" r="1.5" fill="url(#trichome)"/>
    <circle cx="200" cy="240" r="1.5" fill="url(#trichome)"/>
    <circle cx="230" cy="245" r="1" fill="url(#trichome)"/>
    <circle cx="165" cy="240" r="1" fill="url(#trichome)"/>
    <circle cx="250" cy="195" r="1.5" fill="url(#trichome)"/>
    <circle cx="175" cy="145" r="1" fill="url(#trichome)"/>
    <circle cx="215" cy="155" r="1" fill="url(#trichome)"/>
    <circle cx="145" cy="210" r="1" fill="url(#trichome)"/>
  </g>
  <text x="200" y="370" text-anchor="middle" font-family="sans-serif" font-size="10" fill="rgba(168,85,247,0.35)" letter-spacing="3">VILA CBD</text>
</svg>