<svg xmlns="http://www.w3.org/2000/svg" viewBox="0 0 400 400">
  <defs>
    <linearGradient id="bg" x1="0%" y1="0%" x2="100%" y2="100%">
      <stop offset="0%" style="stop-color:#1a2a1a"/>
      <stop offset="100%" style="stop-color:#0d1a0d"/>
    </linearGradient>
    <linearGradient id="leaf" x1="0%" y1="0%" x2="100%" y2="100%">
      <stop offset="0%" style="stop-color:#4caf50"/>
      <stop offset="100%" style="stop-color:#2e7d32"/>
    </linearGradient>
    <filter id="shadow" x="-20%" y="-20%" width="140%" height="140%">
      <feDropShadow dx="0" dy="4" stdDeviation="8" flood-color="#000" flood-opacity="0.5"/>
    </filter>
  </defs>
  <rect width="400" height="400" fill="url(#bg)"/>
  <g filter="url(#shadow)" transform="translate(200,200)">
    <path d="M0 -80 Q40 -60 60 -20 Q70 20 50 60 Q20 90 0 100 Q-20 90 -50 60 Q-70 20 -60 -20 Q-40 -60 0 -80Z" fill="url(#leaf)" opacity="0.8"/>
    <path d="M0 -80 Q5 -30 0 100" stroke="#2e7d32" stroke-width="2" fill="none" opacity="0.6"/>
    <path d="M0 -40 Q-30 -20 -55 10" stroke="#388e3c" stroke-width="1.5" fill="none" opacity="0.4"/>
    <path d="M0 -20 Q30 0 55 25" stroke="#388e3c" stroke-width="1.5" fill="none" opacity="0.4"/>
    <path d="M0 10 Q-35 25 -45 55" stroke="#388e3c" stroke-width="1.5" fill="none" opacity="0.4"/>
    <path d="M0 30 Q25 45 40 65" stroke="#388e3c" stroke-width="1.5" fill="none" opacity="0.4"/>
  </g>
  <text x="200" y="370" text-anchor="middle" font-family="sans-serif" font-size="10" fill="rgba(76,175,80,0.3)" letter-spacing="3">VILA CBD</text>
</svg>