<svg xmlns="http://www.w3.org/2000/svg" viewBox="0 0 400 400">
  <defs>
    <linearGradient id="bg" x1="0%" y1="0%" x2="100%" y2="100%">
      <stop offset="0%" style="stop-color:#0a1a2a"/>
      <stop offset="100%" style="stop-color:#102030"/>
    </linearGradient>
    <radialGradient id="g1" cx="40%" cy="35%" r="60%">
      <stop offset="0%" style="stop-color:#82b1ff"/>
      <stop offset="100%" style="stop-color:#448aff"/>
    </radialGradient>
    <radialGradient id="g2" cx="40%" cy="35%" r="60%">
      <stop offset="0%" style="stop-color:#80d8ff"/>
      <stop offset="100%" style="stop-color:#40c4ff"/>
    </radialGradient>
    <radialGradient id="g3" cx="40%" cy="35%" r="60%">
      <stop offset="0%" style="stop-color:#a7c957"/>
      <stop offset="100%" style="stop-color:#6b9a30"/>
    </radialGradient>
    <filter id="shadow" x="-20%" y="-20%" width="140%" height="140%">
      <feDropShadow dx="0" dy="3" stdDeviation="5" flood-color="#000" flood-opacity="0.5"/>
    </filter>
  </defs>
  <rect width="400" height="400" fill="url(#bg)"/>
  <g filter="url(#shadow)">
    <ellipse cx="130" cy="170" rx="38" ry="32" fill="url(#g1)"/>
    <ellipse cx="210" cy="150" rx="42" ry="36" fill="url(#g2)"/>
    <ellipse cx="290" cy="175" rx="36" ry="30" fill="url(#g1)"/>
    <ellipse cx="160" cy="245" rx="35" ry="30" fill="url(#g2)"/>
    <ellipse cx="245" cy="255" rx="40" ry="34" fill="url(#g1)"/>
    <ellipse cx="320" cy="240" rx="34" ry="28" fill="url(#g2)"/>
    <ellipse cx="100" cy="260" rx="30" ry="26" fill="url(#g3)"/>
    <ellipse cx="180" cy="320" rx="33" ry="28" fill="url(#g1)"/>
    <ellipse cx="270" cy="310" rx="36" ry="30" fill="url(#g2)"/>
  </g>
  <g opacity="0.3">
    <ellipse cx="123" cy="163" rx="14" ry="9" fill="rgba(255,255,255,0.4)" transform="rotate(-15,123,163)"/>
    <ellipse cx="203" cy="143" rx="15" ry="10" fill="rgba(255,255,255,0.4)" transform="rotate(-10,203,143)"/>
    <ellipse cx="283" cy="168" rx="13" ry="8" fill="rgba(255,255,255,0.4)" transform="rotate(-20,283,168)"/>
  </g>
  <text x="200" y="380" text-anchor="middle" font-family="sans-serif" font-size="10" fill="rgba(128,216,255,0.3)" letter-spacing="3">VILA CBD</text>
</svg>