<svg xmlns="http://www.w3.org/2000/svg" viewBox="0 0 400 400">
  <defs>
    <linearGradient id="bg" x1="0%" y1="0%" x2="100%" y2="100%">
      <stop offset="0%" style="stop-color:#1a0a0a"/>
      <stop offset="100%" style="stop-color:#2d1010"/>
    </linearGradient>
    <radialGradient id="g1" cx="40%" cy="35%" r="60%">
      <stop offset="0%" style="stop-color:#ff8a80"/>
      <stop offset="100%" style="stop-color:#ff5252"/>
    </radialGradient>
    <radialGradient id="g2" cx="40%" cy="35%" r="60%">
      <stop offset="0%" style="stop-color:#ff6e40"/>
      <stop offset="100%" style="stop-color:#e64a19"/>
    </radialGradient>
    <radialGradient id="g3" cx="40%" cy="35%" r="60%">
      <stop offset="0%" style="stop-color:#ffab40"/>
      <stop offset="100%" style="stop-color:#ff9100"/>
    </radialGradient>
    <filter id="shadow" x="-20%" y="-20%" width="140%" height="140%">
      <feDropShadow dx="0" dy="3" stdDeviation="5" flood-color="#000" flood-opacity="0.5"/>
    </filter>
  </defs>
  <rect width="400" height="400" fill="url(#bg)"/>
  <g filter="url(#shadow)">
    <ellipse cx="120" cy="180" rx="40" ry="35" fill="url(#g1)"/>
    <ellipse cx="200" cy="160" rx="45" ry="38" fill="url(#g2)"/>
    <ellipse cx="285" cy="185" rx="42" ry="36" fill="url(#g3)"/>
    <ellipse cx="155" cy="250" rx="38" ry="33" fill="url(#g3)"/>
    <ellipse cx="240" cy="260" rx="44" ry="37" fill="url(#g1)"/>
    <ellipse cx="175" cy="320" rx="35" ry="30" fill="url(#g2)"/>
    <ellipse cx="310" cy="270" rx="36" ry="31" fill="url(#g2)"/>
    <ellipse cx="95" cy="265" rx="33" ry="28" fill="url(#g1)"/>
    <ellipse cx="330" cy="150" rx="30" ry="25" fill="url(#g3)"/>
    <ellipse cx="70" cy="155" rx="28" ry="24" fill="url(#g2)"/>
    <ellipse cx="260" cy="330" rx="32" ry="27" fill="url(#g3)"/>
  </g>
  <g opacity="0.4">
    <ellipse cx="112" cy="172" rx="15" ry="10" fill="rgba(255,255,255,0.3)" transform="rotate(-20,112,172)"/>
    <ellipse cx="192" cy="152" rx="17" ry="11" fill="rgba(255,255,255,0.3)" transform="rotate(-15,192,152)"/>
    <ellipse cx="278" cy="177" rx="15" ry="10" fill="rgba(255,255,255,0.3)" transform="rotate(-10,278,177)"/>
    <ellipse cx="232" cy="252" rx="16" ry="10" fill="rgba(255,255,255,0.3)" transform="rotate(-25,232,252)"/>
  </g>
  <text x="200" y="385" text-anchor="middle" font-family="sans-serif" font-size="10" fill="rgba(255,138,128,0.3)" letter-spacing="3">VILA CBD</text>
</svg>